<?xml version="1.0" standalone="no"?>
<!DOCTYPE svg PUBLIC "-//W3C//DTD SVG 1.1//EN" "http://www.w3.org/Graphics/SVG/1.1/DTD/svg11.dtd" >
<svg xmlns="http://www.w3.org/2000/svg">
<metadata>Generated by IcoMoon</metadata>
<defs>
<font id="icomoon" horiz-adv-x="1024">
<font-face units-per-em="1024" ascent="960" descent="-64" />
<missing-glyph horiz-adv-x="1024" />
<glyph unicode="&#x20;" horiz-adv-x="512" d="" />
<glyph unicode="&#xe900;" glyph-name="csv" d="M153.6 115.2v665.6c0 14.138 11.462 25.6 25.6 25.6v0h384v-102.4c0-28.277 22.923-51.2 51.2-51.2v0h102.4v-76.8h51.2v102.4c0 0.044 0 0.096 0 0.148 0 7.033-2.836 13.403-7.426 18.030l-153.598 153.598c-4.625 4.589-10.995 7.424-18.028 7.424-0.052 0-0.104 0-0.156 0h-409.592c-42.415 0-76.8-34.385-76.8-76.8v0-665.6c0-42.415 34.385-76.8 76.8-76.8v0h179.2v51.2h-179.2c-14.138 0-25.6 11.462-25.6 25.6v0zM563.2 396.8h51.2c14.138 0 25.6-11.462 25.6-25.6v0h51.2c0 42.415-34.385 76.8-76.8 76.8v0h-51.2c-42.415 0-76.8-34.385-76.8-76.8s34.385-76.8 76.8-76.8v0h51.2c14.138 0 25.6-11.462 25.6-25.6s-11.462-25.6-25.6-25.6v0h-51.2c-14.138 0-25.6 11.462-25.6 25.6v0h-51.2c0-42.415 34.385-76.8 76.8-76.8v0h51.2c42.415 0 76.8 34.385 76.8 76.8s-34.385 76.8-76.8 76.8v0h-51.2c-14.138 0-25.6 11.462-25.6 25.6s11.462 25.6 25.6 25.6v0zM358.4 396.8c28.277 0 51.2-22.923 51.2-51.2v0h51.2c0 56.554-45.846 102.4-102.4 102.4s-102.4-45.846-102.4-102.4v0-51.2c0-56.554 45.846-102.4 102.4-102.4s102.4 45.846 102.4 102.4v0h-51.2c0-28.277-22.923-51.2-51.2-51.2s-51.2 22.923-51.2 51.2v0 51.2c0 28.277 22.923 51.2 51.2 51.2v0zM870.4 448v-153.6c0-27.648-38.912-51.2-51.2-51.2s-51.2 23.552-51.2 51.2v153.6h-51.2v-153.6c0-56.576 61.952-102.4 102.4-102.4s102.4 45.824 102.4 102.4v153.6h-51.2z" />
<glyph unicode="&#xe901;" glyph-name="search" d="M675.942 330.138l184.934-184.934c5.896-5.896 9.543-14.042 9.543-23.040 0-17.995-14.588-32.583-32.583-32.583-8.998 0-17.144 3.647-23.040 9.543v0l-184.934 184.934c-49.679-39.954-113.524-64.127-183.015-64.127-161.942 0-293.222 131.28-293.222 293.222s131.28 293.222 293.222 293.222c161.942 0 293.222-131.28 293.222-293.222 0-69.491-24.173-133.336-64.57-183.585l0.443 0.57zM446.822 285.082c125.974 0 228.096 102.122 228.096 228.096s-102.122 228.096-228.096 228.096v0c-125.974 0-228.096-102.122-228.096-228.096s102.122-228.096 228.096-228.096v0z" />
<glyph unicode="&#xe902;" glyph-name="shape" d="M996.608 512h-969.301c-15.072-0.097-27.259-12.313-27.307-27.387v-73.221c0-15.019 12.373-27.392 27.392-27.392h969.301c15.072 0.097 27.259 12.313 27.307 27.387v73.306c-0.048 15.109-12.283 27.344-27.387 27.392h-0.005z" />
<glyph unicode="&#xe903;" glyph-name="sort-down" d="M1004.992 717.007c-12.658 12.669-27.663 18.998-45 18.998h-895.987c-17.344 0-32.339-6.329-45.007-18.998-12.669-12.683-18.998-27.677-18.998-45.011 0-17.33 6.329-32.325 18.998-44.997l447.995-447.995c12.683-12.669 27.677-19.012 45.007-19.012s32.339 6.343 44.997 19.012l447.995 447.999c12.655 12.669 19.008 27.663 19.008 44.997 0 17.33-6.354 32.325-19.008 45.007z" />
<glyph unicode="&#xe904;" glyph-name="cancel-x" d="M822.272 210.074c3.952-3.979 6.394-9.461 6.394-15.514s-2.443-11.535-6.396-15.515l0.001 0.001-41.318-41.37c-3.979-3.952-9.461-6.394-15.514-6.394s-11.535 2.443-15.515 6.396l-237.925 237.925-237.926-237.926c-3.979-3.952-9.461-6.394-15.514-6.394s-11.535 2.443-15.515 6.396l-41.369 41.369c-3.952 3.979-6.394 9.461-6.394 15.514s2.443 11.535 6.396 15.515l237.925 237.925-237.926 237.926c-3.952 3.979-6.394 9.461-6.394 15.514s2.443 11.535 6.396 15.515l41.369 41.369c3.979 3.952 9.461 6.394 15.514 6.394s11.535-2.443 15.515-6.396l237.925-237.925 237.926 237.926c3.979 3.952 9.461 6.394 15.514 6.394s11.535-2.443 15.515-6.396l41.369-41.369c3.952-3.979 6.394-9.461 6.394-15.514s-2.443-11.535-6.396-15.515l-237.925-237.925 237.926-237.926z" />
<glyph unicode="&#xe905;" d="M1024 448c0-282.77-229.23-512-512-512s-512 229.23-512 512c0 282.77 229.23 512 512 512s512-229.23 512-512z" />
<glyph unicode="&#xe906;" d="M698.596 616.96l-46.080 46.080c-7.721 7.73-18.391 12.513-30.179 12.516h-153.003c-23.564 0-42.667-19.103-42.667-42.667v0-42.667h-71.111c-23.564 0-42.667-19.103-42.667-42.667v0-284.444c0-23.564 19.103-42.667 42.667-42.667v0h199.111c23.564 0 42.667 19.103 42.667 42.667v0 42.667h71.111c23.564 0 42.667 19.103 42.667 42.667v0 238.336c-0.011 11.778-4.792 22.437-12.515 30.151v0zM549.376 263.111h-188.444c-0.008 0-0.018 0-0.029 0-2.938 0-5.319 2.381-5.319 5.319 0 0.010 0 0.020 0 0.030v-0.002 273.778c0 2.93 2.389 5.319 5.348 5.319h65.735v-199.111c0-23.564 19.103-42.667 42.667-42.667v0h85.333v-37.348c0 0 0 0 0 0 0-2.938-2.381-5.319-5.319-5.319-0.010 0-0.020 0-0.030 0h0.002zM663.154 348.444h-188.444c-0.008 0-0.018 0-0.029 0-2.938 0-5.319 2.381-5.319 5.319 0 0.010 0 0.020 0 0.030v-0.002 273.778c0 2.93 2.389 5.319 5.348 5.319h94.18v-78.222c0-11.776 9.557-21.333 21.333-21.333h78.222v-179.57c0 0 0 0 0 0 0-2.938-2.381-5.319-5.319-5.319-0.010 0-0.020 0-0.030 0h0.002zM668.473 576h-56.889v56.889h8.562c1.422 0 2.759-0.569 3.783-1.564l42.98-42.98c0.966-0.963 1.564-2.296 1.564-3.768 0-0.005 0-0.011 0-0.016v0.001-8.562z" />
<glyph unicode="&#xe907;" glyph-name="copy" d="M835.072 752.128l-82.944 82.944c-13.901 13.918-33.115 22.528-54.34 22.528-0.012 0-0.024 0-0.037 0h-275.352c-42.415 0-76.8-34.385-76.8-76.8v0-76.8h-128c-42.415 0-76.8-34.385-76.8-76.8v0-512c0-42.415 34.385-76.8 76.8-76.8v0h358.4c42.415 0 76.8 34.385 76.8 76.8v0 76.8h128c42.415 0 76.8 34.385 76.8 76.8v0 429.005c-0.019 21.2-8.625 40.386-22.527 54.271l-0.001 0.001zM566.477 115.2h-339.354c0 0 0 0 0 0-5.288 0-9.574 4.287-9.574 9.574 0 0.018 0 0.036 0 0.054v-0.003 492.749c0 5.274 4.301 9.574 9.626 9.574h118.426v-358.4c0-42.415 34.385-76.8 76.8-76.8v0h153.6v-67.226c0 0 0 0 0 0 0-5.288-4.287-9.574-9.574-9.574-0.018 0-0.036 0-0.054 0h0.003zM771.277 268.8h-339.354c0 0 0 0 0 0-5.288 0-9.574 4.287-9.574 9.574 0 0.018 0 0.036 0 0.054v-0.003 492.749c0 5.325 4.301 9.626 9.626 9.626h169.574v-140.8c0-21.197 17.203-38.4 38.4-38.4h140.8v-323.226c0 0 0 0 0 0 0-5.288-4.287-9.574-9.574-9.574-0.018 0-0.036 0-0.054 0h0.003zM780.851 678.4h-102.4v102.4h15.411c2.56 0 4.966-1.024 6.81-2.816l77.363-77.363c1.74-1.734 2.816-4.132 2.816-6.782 0-0.010 0-0.019 0-0.029v0.001-15.411z" />
<glyph unicode="&#xe908;" glyph-name="excel" d="M821.504 700.16l-134.246 134.246c-13.886 13.903-33.072 22.509-54.268 22.528h-326.506c-42.394-0.154-76.8-34.56-76.8-76.954v-665.6c0-42.415 34.385-76.8 76.8-76.8v0h460.8c42.415 0 76.8 34.385 76.8 76.8v0 531.354c0 20.326-8.141 40.038-22.528 54.426zM761.037 652.032h-121.805v121.651l121.805-121.754zM306.432 114.432v665.6h256v-166.4c0-21.299 17.152-38.4 38.4-38.4h166.4v-460.8h-460.8zM645.632 498.432h-46.080c-0.005 0-0.011 0-0.017 0-7.231 0-13.517-4.040-16.727-9.986l-0.050-0.101c-28.774-52.992-35.482-67.84-45.722-92.365-22.272 46.592-11.059 27.699-45.773 92.314-3.324 6.052-9.656 10.086-16.93 10.086-0.006 0-0.012 0-0.018 0h-46.284c-10.603-0.001-19.198-8.597-19.198-19.2 0-3.524 0.95-6.827 2.607-9.666l-0.049 0.091 74.086-124.826-74.086-124.774c-1.65-2.771-2.625-6.11-2.625-9.677 0-10.576 8.573-19.149 19.149-19.149 0.041 0 0.082 0 0.123 0h46.279c0.005 0 0.011 0 0.017 0 7.231 0 13.517 4.040 16.727 9.986l0.050 0.101c34.714 64 36.762 72.038 45.722 92.314 23.859-48.282 9.472-25.395 45.773-92.314 3.324-6.052 9.656-10.086 16.93-10.086 0.006 0 0.012 0 0.018 0h46.079c14.899 0 24.064 16.026 16.64 28.826l-74.24 124.774c1.126 1.792 48.486 80.845 74.086 124.826 1.655 2.77 2.633 6.109 2.633 9.677 0 10.547-8.55 19.098-19.098 19.098-0.008 0-0.015 0-0.023 0h0.001z" />
<glyph unicode="&#xe909;" glyph-name="export" d="M847.104 485.222c0 20.572 16.676 37.248 37.248 37.248s37.248-16.676 37.248-37.248v0-353.587c0-0.015 0-0.033 0-0.051 0-51.464-41.72-93.184-93.184-93.184h-632.832c-51.464 0-93.184 41.72-93.184 93.184 0 0.018 0 0.036 0 0.054v-0.003 353.587c0 20.572 16.676 37.248 37.248 37.248s37.248-16.676 37.248-37.248v0-353.587c0-10.394 8.346-18.739 18.739-18.739h632.73c10.349 0 18.739 8.39 18.739 18.739v0 353.587zM549.222 730.47v-412.979c-0.764-19.983-17.148-35.892-37.248-35.892s-36.484 15.91-37.246 35.823l-0.002 0.069v412.979l-141.158-141.261c-6.737-6.731-16.041-10.893-26.317-10.893-20.565 0-37.236 16.671-37.236 37.236 0 10.289 4.173 19.603 10.919 26.342v0l204.8 204.8c6.736 6.734 16.040 10.899 26.317 10.899s19.581-4.165 26.317-10.899l204.8-204.8c6.746-6.74 10.919-16.054 10.919-26.342 0-20.565-16.671-37.236-37.236-37.236-10.276 0-19.58 4.163-26.317 10.894v0l-141.261 141.261z" />
<glyph unicode="&#xe90a;" glyph-name="filled-check" d="M512 806.4c197.939 0 358.4-160.461 358.4-358.4s-160.461-358.4-358.4-358.4v0c-197.939 0-358.4 160.461-358.4 358.4s160.461 358.4 358.4 358.4v0zM714.598 548.762l-32.563 32.87c-3.142 3.15-7.488 5.099-12.288 5.099-4.775 0-9.099-1.928-12.238-5.048l0.001 0.001-204.288-202.598-86.374 87.091c-3.147 3.181-7.513 5.15-12.339 5.15-4.775 0-9.1-1.928-12.238-5.048l-32.767-32.562c-3.181-3.147-5.15-7.513-5.15-12.339 0-4.775 1.928-9.1 5.048-12.238l-0.001 0.001 131.174-132.198c3.145-3.165 7.501-5.124 12.314-5.124 4.762 0 9.076 1.918 12.213 5.023l-0.001-0.001 249.395 247.398c3.181 3.147 5.15 7.513 5.15 12.339 0 4.775-1.928 9.1-5.048 12.238l0.001-0.001z" />
<glyph unicode="&#xe90b;" glyph-name="icon-close" d="M512 538.496l402.752 402.752c11.497 11.116 27.179 17.966 44.462 17.966 35.346 0 64-28.654 64-64 0-17.282-6.85-32.964-17.983-44.48l0.017 0.018-402.752-402.752 402.752-402.752c11.116-11.497 17.966-27.179 17.966-44.462 0-35.346-28.654-64-64-64-17.282 0-32.964 6.85-44.48 17.983l0.018-0.017-402.752 402.752-402.752-402.752c-11.654-12.054-27.97-19.538-46.034-19.538-35.346 0-64 28.654-64 64 0 18.064 7.484 34.38 19.52 46.017l0.018 0.017 402.752 402.752-402.752 402.752c-11.116 11.497-17.966 27.179-17.966 44.462 0 35.346 28.654 64 64 64 17.282 0 32.964-6.85 44.48-17.983l-0.018 0.017 402.752-402.752z" />
<glyph unicode="&#xe90c;" glyph-name="outlined-check" d="M512 806.4c-197.939 0-358.4-160.461-358.4-358.4s160.461-358.4 358.4-358.4v0c197.939 0 358.4 160.461 358.4 358.4s-160.461 358.4-358.4 358.4v0zM512 737.024c0.046 0 0.1 0 0.154 0 159.539 0 288.87-129.332 288.87-288.87 0-0.054 0-0.108 0-0.162v0.008c0-0.046 0-0.1 0-0.154 0-159.539-129.332-288.87-288.87-288.87-0.054 0-0.108 0-0.162 0h0.008c-0.046 0-0.1 0-0.154 0-159.539 0-288.87 129.332-288.87 288.87 0 0.054 0 0.108 0 0.162v-0.008c0 0.046 0 0.1 0 0.154 0 159.539 129.332 288.87 288.87 288.87 0.054 0 0.108 0 0.162 0h-0.008zM714.598 548.762l-32.563 32.87c-3.142 3.15-7.488 5.099-12.288 5.099-4.775 0-9.099-1.928-12.238-5.048l0.001 0.001-204.288-202.598-86.374 87.091c-3.147 3.181-7.513 5.15-12.339 5.15-4.775 0-9.1-1.928-12.238-5.048l-32.767-32.562c-3.181-3.147-5.15-7.513-5.15-12.339 0-4.775 1.928-9.1 5.048-12.238l-0.001 0.001 131.174-132.198c3.145-3.165 7.501-5.124 12.314-5.124 4.762 0 9.076 1.918 12.213 5.023l-0.001-0.001 249.395 247.398c3.181 3.147 5.15 7.513 5.15 12.339 0 4.775-1.928 9.1-5.048 12.238l0.001-0.001z" />
<glyph unicode="&#xe90d;" glyph-name="pdf" d="M820.941 699.648l-133.99 133.99c-14.336 14.336-33.843 22.528-54.118 22.528h-325.939c-42.326-0.145-76.588-34.462-76.646-76.794v-664.326c0-42.291 34.304-76.646 76.646-76.646h459.93c42.291 0 76.646 34.304 76.646 76.646v530.33c0 20.275-8.192 39.936-22.528 54.272zM760.576 651.622h-121.549v121.498l121.549-121.498zM306.944 115.046v664.32h255.488v-166.093c0-21.248 17.050-38.298 38.298-38.298h166.093v-459.93h-459.93zM706.458 344.525c-19.456 19.149-75.059 13.875-102.861 10.394-27.443 16.742-45.824 39.936-58.778 73.933 6.246 25.702 16.128 64.819 8.653 89.395-6.707 41.83-60.416 37.683-68.045 9.421-7.014-25.702-0.614-61.44 11.162-107.11-15.923-38.195-39.731-89.446-56.525-118.784-31.898-16.486-75.059-41.882-81.408-73.83-5.274-25.242 41.472-88.115 121.498 49.818 35.789 11.827 74.752 26.368 109.261 32.102 30.157-16.282 65.434-27.136 89.088-27.136 40.704 0 44.698 45.056 27.955 61.798zM390.093 220.262c8.192 21.914 39.117 47.104 48.538 55.91-30.31-48.384-48.538-56.986-48.538-55.91zM520.397 524.646c11.776 0 10.752-51.251 2.867-65.126-7.014 22.17-6.861 65.126-2.867 65.126zM481.485 306.534c15.462 26.982 28.672 59.085 39.424 87.347 13.21-24.115 30.157-43.469 48.026-56.73-33.178-6.861-62.106-20.89-87.501-30.618zM691.61 314.522s-7.987-9.626-59.597 12.442c56.064 4.147 65.331-8.653 59.597-12.442z" />
<glyph unicode="&#xe90e;" glyph-name="print" d="M772.608 708.608h55.808c0.015 0 0.033 0 0.052 0 51.346 0 92.987-41.551 93.132-92.863v-260.878c-0.029-51.357-41.669-92.979-93.030-92.979-0.054 0-0.108 0-0.162 0h-55.799v-130.202c0-51.456-41.523-93.235-92.877-93.235h-335.462c-51.335 0.058-92.928 41.687-92.928 93.030 0 0.054 0 0.108 0 0.162v-0.008 130.253h-55.706c-0.031 0-0.067 0-0.103 0-51.364 0-93.016 41.58-93.133 92.917v260.875c0.058 51.335 41.687 92.928 93.030 92.928 0.054 0 0.108 0 0.162 0h55.8v55.757c0 51.456 41.472 93.235 92.826 93.235h335.462c51.405 0 92.928-41.728 92.928-93.184v-55.808zM325.888 764.365v-55.654h372.326v55.603c0.001 0.076 0.002 0.166 0.002 0.256 0 10.201-8.241 18.477-18.428 18.534h-335.519c-10.222-0.201-18.432-8.535-18.432-18.787 0-0.001 0-0.002 0-0.004v0zM325.888 354.816v-223.13c0-0.046-0.001-0.1-0.001-0.154 0-10.211 8.234-18.498 18.424-18.585h335.47c9.984 0 18.432 8.346 18.432 18.739v223.13c0 0.046 0.001 0.1 0.001 0.154 0 10.211-8.234 18.498-18.424 18.585h-335.522c-10.216-0.173-18.432-8.495-18.432-18.737 0-0.001 0-0.002 0-0.003v0zM772.71 336.384h55.706c0.046 0 0.1-0.001 0.154-0.001 10.211 0 18.498 8.234 18.585 18.424v260.923c-0.087 10.227-8.397 18.483-18.636 18.483-0.036 0-0.072 0-0.109 0h-632.775c-0.046 0-0.1 0.001-0.154 0.001-10.229 0-18.528-8.263-18.585-18.478v-260.869c0-10.189 8.346-18.534 18.739-18.534h55.706v18.483c0 51.456 41.574 93.235 92.928 93.235h335.462c51.405 0 92.928-41.728 92.928-93.184v-18.534z" />
<glyph unicode="&#xe90f;" glyph-name="delete" d="M796.365 561.152l-29.696-432.384c-3.482-50.278-44.851-90.368-93.184-90.368h-323.021c-48.435 0-89.702 39.936-93.184 90.368l-29.696 432.333c-42.752 7.936-73.933 46.643-73.984 91.699v37.222c0 50.432 38.707 91.699 87.245 93.082l115.917 15.053c13.414 35.891 46.592 59.443 83.61 59.443h143.309c36.966 0 70.144-23.603 83.61-59.443l115.917-15.053c48.538-1.434 87.194-42.65 87.245-93.082v-37.222c0-45.158-31.232-83.814-74.035-91.648zM299.622 559.718l29.235-425.626c0.819-11.469 10.854-21.197 21.709-21.197h322.867c10.752 0 20.941 9.83 21.709 21.197l29.235 425.626h-424.755zM565.862 451.072c0.874 13.518 8.832 24.993 20.168 30.827l0.209 0.098c4.502 2.286 9.818 3.625 15.445 3.625 7.709 0 14.831-2.513 20.592-6.764l-0.095 0.067c10.547-7.68 16.333-20.685 15.155-33.997l-17.92-223.437c-0.874-13.518-8.832-24.993-20.168-30.827l-0.209-0.098c-4.492-2.273-9.792-3.605-15.404-3.605-7.727 0-14.865 2.525-20.633 6.794l0.094-0.067c-9.342 6.96-15.328 17.975-15.328 30.388 0 1.271 0.063 2.527 0.185 3.766l-0.013-0.157 17.92 223.386zM386.662 444.928c-0.107 1.068-0.168 2.307-0.168 3.561 0 12.411 5.984 23.424 15.223 30.313l0.1 0.071c5.674 4.203 12.811 6.728 20.539 6.728 5.611 0 10.912-1.331 15.603-3.696l-0.199 0.091c11.622-5.734 19.456-17.562 20.378-30.925l17.92-223.386c0.11-1.082 0.173-2.338 0.173-3.609 0-12.413-5.986-23.428-15.228-30.316l-0.1-0.071c-5.666-4.184-12.788-6.697-20.497-6.697-5.628 0-10.943 1.339-15.644 3.716l0.198-0.091c-11.532 5.923-19.485 17.376-20.372 30.761l-0.006 0.112-17.92 223.437zM243.302 708.608c-9.991-0.172-18.024-8.311-18.024-18.327 0-0.091 0.001-0.182 0.002-0.272v0.014-37.222c0-10.24 8.090-18.637 18.022-18.637h537.395c9.991 0.171 18.025 8.311 18.025 18.327 0 0.109-0.001 0.218-0.003 0.326v-0.016 37.222c0.001 0.062 0.001 0.136 0.001 0.209 0 10.036-8.021 18.199-18.002 18.427h-0.021c-0.089-0.001-0.194-0.001-0.299-0.001-1.483 0-2.943 0.093-4.377 0.275l0.17-0.018-143.206 18.637c-17.861 2.712-31.39 17.959-31.39 36.367 0 0.211 0.002 0.421 0.005 0.631v-0.032c0 10.24-8.090 18.586-17.971 18.586h-143.309c-0.001 0-0.002 0-0.002 0-4.989 0-9.492-2.080-12.689-5.421l-0.006-0.006c-3.264-3.398-5.274-8.022-5.274-13.115 0-0.015 0-0.031 0-0.046v0.002c0.003-0.178 0.005-0.389 0.005-0.599 0-18.408-13.529-33.655-31.187-36.342l-0.204-0.026-143.206-18.637c-1.263-0.164-2.724-0.257-4.206-0.257-0.105 0-0.21 0-0.316 0.001h0.016z" />
<glyph unicode="&#xe910;" glyph-name="edit" d="M633.037 665.293l-456.192-456.141v-96.256h96.307l456.192 456.141-96.307 96.256zM685.67 717.978l96.256-96.307 49.766 49.766-96.256 96.256-49.766-49.715zM761.754 846.694l148.941-148.992c6.734-6.736 10.899-16.040 10.899-26.317s-4.165-19.581-10.899-26.317l-595.814-595.763c-6.736-6.738-16.043-10.906-26.324-10.906-0.016 0-0.031 0-0.047 0h-148.887c-20.557 0-37.222 16.665-37.222 37.222v0 148.992c0 9.83 3.942 19.302 10.906 26.317l595.814 595.763c6.738 6.749 16.053 10.924 26.342 10.924s19.604-4.175 26.342-10.924l0.001-0.001zM884.378 112.896c20.572 0 37.248-16.676 37.248-37.248s-16.676-37.248-37.248-37.248v0h-372.378c-20.572 0-37.248 16.676-37.248 37.248s16.676 37.248 37.248 37.248v0h372.378z" />
<glyph unicode="&#xe911;" glyph-name="eye" d="M106.035 430.797c-2.31 5.059-3.657 10.974-3.657 17.203s1.347 12.144 3.765 17.469l-0.108-0.265c78.336 175.514 245.197 289.997 431.565 289.997s353.229-114.483 431.565-289.997c2.31-5.059 3.657-10.974 3.657-17.203s-1.347-12.144-3.765-17.469l0.108 0.265c-78.336-175.514-245.197-289.997-431.565-289.997s-353.229 114.483-431.565 289.997zM537.6 222.72c148.941 0 283.136 88.064 351.59 225.28-68.454 137.216-202.598 225.28-351.59 225.28s-283.136-88.064-351.59-225.28c68.506-137.216 202.65-225.28 351.59-225.28zM540.16 632.32c24.73-0.358 43.11-23.962 38.195-49.152-0.749-3.674-1.178-7.898-1.178-12.221 0-0.024 0-0.047 0-0.071v0.004c0-33.946 26.573-61.44 59.341-61.44 7.68 0 15.206 1.536 22.17 4.403 23.040 9.626 48.794-4.864 53.606-30.054 2.202-11.725 3.328-23.706 3.328-35.789 0-101.786-79.718-184.32-178.022-184.32s-178.022 82.534-178.022 184.32 79.718 184.32 178.022 184.32h2.56zM438.63 448c0-56.576 44.288-102.4 98.918-102.4 47.872 0 87.757 35.174 96.922 81.92-66.355 1.024-121.446 50.278-133.888 115.507-36.722-16.118-61.905-52.161-61.905-94.086 0-0.331 0.002-0.661 0.005-0.991v0.050z" />
<glyph unicode="&#xe912;" glyph-name="oval" d="M961.939 448c0-248.495-201.445-449.939-449.939-449.939s-449.939 201.445-449.939 449.939c0 248.495 201.445 449.939 449.939 449.939s449.939-201.445 449.939-449.939z" />
<glyph unicode="&#xe913;" glyph-name="plus" d="M899.635 499.2h-336.435v336.435c-0.029 12.119-9.846 21.936-21.962 21.965h-58.422c0 0 0 0 0 0-12.141 0-21.987-9.828-22.016-21.962v-336.438h-336.435c-12.119-0.029-21.936-9.846-21.965-21.962v-58.473c0.029-12.119 9.846-21.936 21.962-21.965h336.438v-336.435c0.029-12.119 9.846-21.936 21.962-21.965h58.473c12.119 0.029 21.936 9.846 21.965 21.962v336.438h336.435c12.119 0.029 21.936 9.846 21.965 21.962v58.422c0 0 0 0 0 0 0 12.141-9.828 21.987-21.962 22.016h-0.003z" />
</font>
</defs>
</svg>
